<svg width="184" height="40" viewBox="0 0 184 40" fill="none" xmlns="http://www.w3.org/2000/svg">
<path d="M27.9873 31.6787L4.06732 15.1787C1.64332 13.5067 2.46732 10.0253 5.48999 9.20664L30.9127 2.30664C31.4512 2.11232 32.0283 2.04924 32.5961 2.12264C33.1639 2.19604 33.706 2.4038 34.1775 2.72868C34.6488 3.05356 35.036 3.48618 35.3067 3.99065C35.5773 4.49512 35.7239 5.05688 35.734 5.6293L34.2273 29.028C34.0487 31.8053 30.4113 33.3507 27.9873 31.6787Z" fill="#E9327C"/>
<path d="M20.3997 35.752L6.30765 8.1934C5.98552 7.56294 5.84377 6.85576 5.89802 6.14985C5.95228 5.44394 6.20044 4.76673 6.61512 4.1929C7.02981 3.61908 7.59492 3.17092 8.24813 2.89785C8.90134 2.62478 9.61728 2.53742 10.317 2.64541L36.433 6.67606C37.0342 6.76888 37.6049 7.00308 38.0981 7.35941C38.5911 7.71576 38.9926 8.18405 39.2695 8.7258C39.5463 9.26754 39.6907 9.86726 39.6906 10.4757C39.6905 11.0841 39.5459 11.6837 39.269 12.2254L27.2383 35.7533C26.9153 36.382 26.4251 36.9095 25.8218 37.2776C25.2185 37.6459 24.5254 37.8405 23.8186 37.8404C23.1118 37.8403 22.4187 37.6453 21.8155 37.2769C21.2123 36.9084 20.7225 36.3808 20.3997 35.752Z" fill="#1DACE3"/>
<path d="M35.6687 6.55734L22.65 4.548L6.66602 8.888L13.046 21.3693L27.986 31.6787C28.3156 31.9036 28.6781 32.0759 29.0607 32.1893L34.7353 21.092L35.6687 6.55734Z" fill="#001A49"/>
<path d="M101.611 9.77869C101.611 9.29479 101.755 8.82176 102.024 8.4194C102.293 8.01705 102.675 7.70345 103.122 7.51827C103.569 7.33309 104.061 7.28464 104.535 7.37904C105.01 7.47345 105.446 7.70648 105.788 8.04864C106.13 8.39081 106.363 8.82677 106.458 9.30137C106.552 9.77599 106.504 10.2679 106.318 10.715C106.133 11.1621 105.82 11.5442 105.417 11.813C105.015 12.0819 104.542 12.2254 104.058 12.2254C103.411 12.2188 102.793 11.9589 102.335 11.5015C101.878 11.044 101.618 10.4255 101.611 9.77869ZM102.019 13.4213H106.098V27.0133H102.019V13.4213Z" fill="#001A49"/>
<path d="M123.712 20.2173C123.759 21.1157 123.629 22.0147 123.327 22.8624C123.026 23.71 122.56 24.4899 121.957 25.1569C121.353 25.8239 120.623 26.3649 119.81 26.7491C118.996 27.1331 118.115 27.3525 117.216 27.3947C116.46 27.4357 115.704 27.3083 115.004 27.0215C114.303 26.7345 113.675 26.2955 113.165 25.736V32.4507H109.088V13.4213H113.165V14.6987C113.675 14.1393 114.303 13.7005 115.004 13.4139C115.705 13.1273 116.46 13 117.216 13.0413C118.115 13.0833 118.996 13.3025 119.809 13.6864C120.623 14.0704 121.353 14.6113 121.956 15.2783C122.56 15.9452 123.026 16.7248 123.327 17.5725C123.629 18.4201 123.759 19.3189 123.712 20.2173ZM119.635 20.2173C119.619 19.5809 119.415 18.9635 119.05 18.442C118.685 17.9207 118.174 17.5185 117.581 17.2861C116.989 17.0536 116.341 17.0012 115.718 17.1352C115.096 17.2692 114.527 17.5837 114.083 18.0395C113.638 18.4952 113.338 19.072 113.22 19.6975C113.102 20.3229 113.171 20.9695 113.418 21.556C113.665 22.1425 114.08 22.6431 114.61 22.9951C115.141 23.3471 115.763 23.5347 116.4 23.5347C116.837 23.5544 117.273 23.4813 117.68 23.3205C118.087 23.1596 118.455 22.9144 118.761 22.6012C119.066 22.2879 119.302 21.9136 119.453 21.5027C119.603 21.0919 119.665 20.6537 119.635 20.2173Z" fill="#001A49"/>
<path d="M136.297 22.9333C136.297 26.06 133.579 27.392 130.643 27.392C129.457 27.4993 128.266 27.2483 127.224 26.6713C126.182 26.0945 125.337 25.2183 124.799 24.156L128.332 22.1453C128.476 22.6364 128.784 23.0632 129.204 23.3544C129.625 23.6456 130.133 23.7836 130.643 23.7453C131.621 23.7453 132.109 23.4453 132.109 22.9027C132.109 21.4067 125.423 22.196 125.423 17.492C125.423 14.5293 127.923 13.0347 130.756 13.0347C131.819 13.0013 132.871 13.2535 133.803 13.7649C134.736 14.2764 135.513 15.0284 136.056 15.9427L132.577 17.8187C132.425 17.4619 132.171 17.1577 131.848 16.9444C131.524 16.7309 131.144 16.6177 130.756 16.6187C130.049 16.6187 129.615 16.8853 129.615 17.38C129.611 18.94 136.297 17.9067 136.297 22.9333Z" fill="#001A49"/>
<path d="M151.2 13.4213V27.0133H147.123V25.7333C146.652 26.2972 146.054 26.7415 145.378 27.0299C144.703 27.3181 143.968 27.4423 143.235 27.392C140.49 27.392 138.152 25.4347 138.152 21.764V13.4213H142.23V21.1693C142.195 21.4933 142.232 21.8209 142.338 22.1292C142.443 22.4375 142.614 22.7192 142.839 22.9547C143.064 23.1901 143.338 23.3736 143.64 23.4924C143.944 23.6113 144.27 23.6625 144.595 23.6427C146.09 23.6427 147.128 22.7733 147.128 20.8427V13.4213H151.2Z" fill="#001A49"/>
<path d="M174.572 18.6667V27.0133H170.494V19.0213C170.494 17.6627 169.841 16.792 168.537 16.792C167.177 16.792 166.417 17.744 166.417 19.348V27.0133H162.338V19.0213C162.338 17.6627 161.686 16.792 160.381 16.792C159.022 16.792 158.261 17.744 158.261 19.348V27.0133H154.184V13.4213H158.268V14.6667C158.69 14.1121 159.245 13.6724 159.881 13.3875C160.517 13.1027 161.216 12.9818 161.91 13.036C162.608 13.0019 163.304 13.1492 163.928 13.4635C164.552 13.7777 165.084 14.2483 165.472 14.8293C165.924 14.2215 166.522 13.738 167.212 13.4244C167.901 13.1107 168.66 12.9771 169.414 13.036C172.534 13.0414 174.572 15.2693 174.572 18.6667Z" fill="#001A49"/>
<path d="M178.025 13.3373C179.697 13.3373 181.051 11.9823 181.051 10.3107C181.051 8.63912 179.697 7.28403 178.025 7.28403C176.353 7.28403 174.998 8.63912 174.998 10.3107C174.998 11.9823 176.353 13.3373 178.025 13.3373Z" fill="#001A49"/>
<path d="M45.9434 7.16928H50.022V27.0133H45.9434V7.16928ZM52.3314 20.2173C52.327 18.7923 52.7454 17.398 53.5338 16.2111C54.3222 15.024 55.4451 14.0976 56.7603 13.5492C58.0756 13.0008 59.5239 12.855 60.9222 13.1302C62.3203 13.4055 63.6054 14.0893 64.6146 15.0955C65.6238 16.1015 66.3118 17.3843 66.5914 18.7816C66.871 20.1789 66.7298 21.6277 66.1855 22.9447C65.6412 24.2616 64.7184 25.3875 63.5339 26.1796C62.3494 26.9718 60.9564 27.3947 59.5314 27.3947C58.585 27.4047 57.646 27.2262 56.7694 26.8694C55.8928 26.5126 55.096 25.9846 54.4258 25.3164C53.7554 24.6481 53.225 23.8531 52.8654 22.9776C52.5058 22.1021 52.3243 21.1637 52.3314 20.2173ZM62.662 20.2173C62.646 19.6025 62.4492 19.0063 62.096 18.5029C61.743 17.9996 61.2492 17.6115 60.6767 17.3872C60.104 17.1631 59.4782 17.1125 58.8771 17.2423C58.276 17.3719 57.7266 17.676 57.2974 18.1163C56.8682 18.5567 56.5784 19.1137 56.4642 19.7179C56.35 20.3221 56.4164 20.9465 56.6554 21.5132C56.8942 22.0797 57.2948 22.5633 57.8071 22.9035C58.3194 23.2436 58.9206 23.4251 59.5354 23.4254C59.9564 23.4373 60.3755 23.3619 60.7659 23.2039C61.1564 23.046 61.5099 22.8088 61.8042 22.5073C62.0984 22.206 62.3271 21.8469 62.4756 21.4528C62.6242 21.0585 62.6895 20.6379 62.6674 20.2173H62.662ZM82.994 13.4173V26.3307C82.994 30.8973 79.4327 32.8267 75.818 32.8267C74.5458 32.9227 73.2715 32.6665 72.135 32.0863C70.9986 31.5061 70.0438 30.6241 69.3754 29.5373L72.854 27.5253C73.1348 28.0925 73.5822 28.5606 74.1362 28.8668C74.6902 29.173 75.3243 29.3027 75.954 29.2387C76.356 29.2935 76.7651 29.2575 77.1512 29.1331C77.5374 29.0087 77.8906 28.7994 78.185 28.5201C78.4792 28.2411 78.7071 27.8995 78.8518 27.5204C78.9964 27.1415 79.0542 26.7348 79.0207 26.3307V25.08C78.5431 25.664 77.9352 26.128 77.246 26.4348C76.5567 26.7416 75.8051 26.8827 75.0514 26.8467C73.2574 26.7908 71.5554 26.0389 70.306 24.7501C69.0567 23.4613 68.358 21.7369 68.358 19.942C68.358 18.1469 69.0567 16.4225 70.306 15.1337C71.5554 13.8449 73.2574 13.093 75.0514 13.0373C75.8051 13.0012 76.5567 13.1422 77.246 13.4491C77.9352 13.7559 78.5431 14.2199 79.0207 14.804V13.4173H82.994ZM79.026 19.9413C79.053 19.2848 78.8828 18.6353 78.5376 18.0763C78.1924 17.5172 77.6879 17.0741 77.0888 16.8041C76.4899 16.5341 75.8238 16.4495 75.1763 16.5611C74.5288 16.6727 73.9295 16.9753 73.4554 17.4303C72.9812 17.8852 72.654 18.4715 72.5159 19.1137C72.3776 19.7561 72.4347 20.4251 72.6798 21.0348C72.9247 21.6444 73.3466 22.1668 73.8908 22.5348C74.4351 22.9028 75.0771 23.0996 75.734 23.1C76.1624 23.13 76.5924 23.0701 76.9963 22.9241C77.4002 22.7781 77.769 22.5492 78.0791 22.252C78.3891 21.9549 78.6336 21.5961 78.7967 21.1989C78.9598 20.8016 79.0379 20.3745 79.026 19.9453V19.9413ZM85.3034 20.208C85.299 18.7829 85.7174 17.3887 86.5058 16.2017C87.2942 15.0147 88.4171 14.0883 89.7323 13.5399C91.0476 12.9915 92.4959 12.8456 93.8942 13.1209C95.2923 13.3961 96.5772 14.08 97.5866 15.0861C98.5958 16.0921 99.2838 17.3749 99.5634 18.7723C99.843 20.1696 99.7018 21.6184 99.1575 22.9353C98.6132 24.2523 97.6904 25.3782 96.5059 26.1703C95.3214 26.9624 93.9284 27.3853 92.5034 27.3853C91.5578 27.3953 90.6196 27.2171 89.7436 26.8608C88.8676 26.5047 88.0712 25.9775 87.4011 25.3103C86.7308 24.6431 86.2003 23.8492 85.8402 22.9747C85.4799 22.1003 85.2975 21.1629 85.3034 20.2173V20.208ZM95.634 20.208C95.6183 19.5929 95.4215 18.9961 95.0684 18.4923C94.7152 17.9885 94.2212 17.6001 93.6484 17.3756C93.0755 17.1511 92.4492 17.1005 91.8478 17.2303C91.2463 17.3599 90.6964 17.6641 90.2671 18.1047C89.8376 18.5453 89.5476 19.1028 89.4335 19.7073C89.3192 20.3119 89.3859 20.9368 89.625 21.5036C89.8642 22.0705 90.2651 22.5543 90.7778 22.8945C91.2906 23.2347 91.8922 23.416 92.5074 23.416C92.9272 23.4271 93.3447 23.3515 93.7339 23.1937C94.1231 23.036 94.4755 22.7995 94.7691 22.4992C95.0626 22.1989 95.291 21.8412 95.4398 21.4485C95.5887 21.0559 95.6548 20.6367 95.634 20.2173V20.208Z" fill="#001A49"/>
</svg>
